Nostalghia is Russian director Andrei Tarkovsky's enigmatic work about a writer (Oleg Yankovsky) who, trapped by his fame and an unhappy marriage, seeks out his cultural past in Italy. Here he meets Erland Josephson, a local pariah who declares that the world is coming to an end. The writer finds this prophecy curiously more alluring than the possibility of a dead-end future. Nostalghia won the Grand Prix de Creation and the International Critics Prize at the 1984 Cannes Film Festival. 

   General
      Complete name : Nostalghia.avi
      Format : AVI
      Format/Info : Audio Video Interleave
      File size : 1.63 GiB
      Duration : 2h 0mn
      Overall bit rate : 1 935 Kbps
      Writing application : FairUse Wizard - http://fairusewizard.com
      Writing library : The best and REALLY easy backup tool
   Video #0
      ID : 0
      Format : MPEG-4 Visual
      Format profile : AdvancedSimple@L5
      Format settings, BVOP : Yes
      Format settings, QPel : No
      Format settings, GMC : No warppoints
      Format settings, Matrix : Default (MPEG)
      Muxing mode : Packed bitstream
      Codec ID : XVID
      Codec ID/Hint : XviD
      Duration : 2h 0mn
      Bit rate : 1 733 Kbps
      Width : 624 pixels
      Height : 384 pixels
      Display aspect ratio : 1.625
      Frame rate : 25.000 fps
      Resolution : 24 bits
      Colorimetry : 4:2:0
      Scan type : Progressive
      Bits/(Pixel*Frame) : 0.289
      Stream size : 1.46 GiB (90%)
      Writing library : XviD 1.2.0.dev47 (UTC 2006-11-01)
   Audio #1
      ID : 1
      Format : AC-3
      Format/Info : Audio Coding 3
      Codec ID : 2000
      Duration : 2h 0mn
      Bit rate mode : Constant
      Bit rate : 192 Kbps
      Channel(s) : 2 channels
      Channel positions : L R
      Sampling rate : 48.0 KHz
      Stream size : 165 MiB (10%)
      Alignment : Split accross interleaves
      Interleave, duration : 40 ms (1.00 video frame)
      Interleave, preload duration : 500 ms
 
http://www.imdb.com/title/tt0086022/

Italian and Russian audio; English, French, Spanish and Portuguese subtitles

Andrei Tarkovsky - Nostalghia (1983)